<?xml version="1.0" encoding="UTF-8"?>
<svg width="568px" height="449px" viewBox="0 0 568 449" version="1.1" xmlns="http://www.w3.org/2000/svg" xmlns:xlink="http://www.w3.org/1999/xlink">
    <!-- Generator: Sketch 64 (93537) - https://sketch.com -->
    <title>Tempo for Zendesk</title>
    <desc>Created with Sketch.</desc>
    <defs>
        <polygon id="path-1" points="0.754431981 0.722145297 568.017421 0.722145297 568.017421 370.115307 0.754431981 370.115307"></polygon>
        <path d="M266.987444,43.1030957 C253.215537,43.1662447 239.359333,43.0478404 225.591377,42.9281206 L225.591377,42.9281206 C109.748509,41.9243156 0.251571759,40.919195 0.754296083,149.098585 L0.754296083,149.098585 C1.31712963,270.135362 153.242764,370.714514 282.899688,370.115965 L282.899688,370.115965 C412.556611,369.512053 514.389171,283.395323 549.974063,167.695947 L549.974063,167.695947 C562.372204,127.38456 567.946296,96.1245213 568.017421,72.1581844 L568.017421,72.1581844 L568.017421,71.2412092 C567.855414,17.3146489 539.485759,0.722265957 498.345215,0.722265957 L498.345215,0.722265957 C432.828553,0.722265957 334.924991,42.7860355 266.987444,43.1030957" id="path-3"></path>
        <path d="M266.987444,43.1030957 C253.215537,43.1662447 239.359333,43.0478404 225.591377,42.9281206 L225.591377,42.9281206 C109.748509,41.9243156 0.251571759,40.919195 0.754296083,149.098585 L0.754296083,149.098585 C1.31712963,270.135362 153.242764,370.714514 282.899688,370.115965 L282.899688,370.115965 C412.556611,369.512053 514.389171,283.395323 549.974063,167.695947 L549.974063,167.695947 C562.372204,127.38456 567.946296,96.1245213 568.017421,72.1581844 L568.017421,72.1581844 L568.017421,71.2412092 C567.855414,17.3146489 539.485759,0.722265957 498.345215,0.722265957 L498.345215,0.722265957 C432.828553,0.722265957 334.924991,42.7860355 266.987444,43.1030957" id="path-5"></path>
        <path d="M266.987444,43.1030957 C253.215537,43.1662447 239.359333,43.0478404 225.591377,42.9281206 L225.591377,42.9281206 C109.748509,41.9243156 0.251571759,40.919195 0.754296083,149.098585 L0.754296083,149.098585 C1.31712963,270.135362 153.242764,370.714514 282.899688,370.115965 L282.899688,370.115965 C412.556611,369.512053 514.389171,283.395323 549.974063,167.695947 L549.974063,167.695947 C562.372204,127.38456 567.946296,96.1245213 568.017421,72.1581844 L568.017421,72.1581844 L568.017421,71.2412092 C567.855414,17.3146489 539.485759,0.722265957 498.345215,0.722265957 L498.345215,0.722265957 C432.828553,0.722265957 334.924991,42.7860355 266.987444,43.1030957" id="path-7"></path>
    </defs>
    <g id="home" stroke="none" stroke-width="1" fill="none" fill-rule="evenodd">
        <g id="Tempo-homepage" transform="translate(-648.000000, -3549.000000)">
            <g id="Tempo-for-Zendesk" transform="translate(648.000000, 3550.000000)">
                <g id="Group-3" transform="translate(0.000000, 77.000000)">
                    <mask id="mask-2" fill="white">
                        <use xlink:href="#path-1"></use>
                    </mask>
                    <g id="Clip-2"></g>
                    <path d="M549.974194,167.695289 C514.387986,283.394665 412.556743,369.511395 282.898502,370.115307 C153.242896,370.713856 1.31726134,270.134704 0.754431981,149.097927 C0.192432639,28.0624663 137.329335,43.7036684 266.986259,43.1024379 C396.643183,42.4998918 635.430882,-110.156083 549.974194,167.695289" id="Fill-1" fill="#FBFCFD" mask="url(#mask-2)"></path>
                </g>
                <g id="Group-13" transform="translate(0.000000, 77.000000)">
                    <g id="Group-6">
                        <mask id="mask-4" fill="white">
                            <use xlink:href="#path-3"></use>
                        </mask>
                        <g id="Clip-5"></g>
                        <path d="M324.827348,286.997575 C185.054869,221.62527 -64.5385616,29.9366741 -64.5385616,29.9366741 L24.2056815,342.398926 C24.2056815,342.398926 354.778876,314.698908 324.827348,286.997575" id="Fill-4" fill="#DCE7EF" mask="url(#mask-4)"></path>
                    </g>
                    <g id="Group-9">
                        <mask id="mask-6" fill="white">
                            <use xlink:href="#path-5"></use>
                        </mask>
                        <g id="Clip-8"></g>
                        <path d="M269.378035,307.597547 C123.692961,279.814646 -0.703347222,215.393522 -0.703347222,215.393522 L118.17287,388.101916 C118.17287,388.101916 415.061792,335.381763 269.378035,307.597547" id="Fill-7" fill="#A7C7D1" mask="url(#mask-6)"></path>
                    </g>
                    <g id="Group-12">
                        <mask id="mask-8" fill="white">
                            <use xlink:href="#path-7"></use>
                        </mask>
                        <g id="Clip-11"></g>
                        <path d="M163.576831,328.202782 C213.237887,327.971236 226.253762,317.268807 270.455315,306.091445 C285.298049,302.33803 314.349977,300.002835 335.578155,296.350722 C341.567144,301.029005 347.9381,303.919385 354.817468,305.874371 C361.707373,313.944278 370.600632,320.431516 380.493593,324.402005 C381.30231,324.876938 382.100491,325.366342 382.886817,325.874165 C384.009012,326.847711 385.139109,327.810732 386.242864,328.804012 C391.82881,333.769098 400.168875,343.166449 407.693637,348.607782 C399.781639,351.229778 391.899935,354.308289 383.847005,357.827527 C376.382831,361.088906 369.066176,364.643665 361.704739,368.128697 C358.544945,369.623222 355.037428,370.929615 351.988273,372.624112 C367.314394,364.106899 353.599123,371.926842 349.049757,373.437154 C348.026347,373.77658 340.725498,375.307941 337.993771,376.210445 C335.811287,376.332796 333.628803,376.4512 331.442368,376.499878 C321.29125,376.802466 311.142766,376.868246 300.991648,377.232668 C280.93835,377.949672 260.869246,378.508803 240.802776,378.119385 C230.872935,377.927307 220.944412,377.511576 211.039597,376.769576 C205.373306,376.344637 199.734674,375.719725 194.081553,375.169803 C194.03282,375.164541 193.997257,375.16191 193.951158,375.156647 C193.629778,375.096129 193.291276,375.030349 192.910625,374.959307 C185.458306,373.555559 178.024426,372.214959 170.634012,370.579665 C160.476308,361.002076 149.943222,351.837587 138.141741,344.241296 C134.016491,341.585094 129.714746,339.248583 125.322118,337.087048 C136.540111,331.533888 149.217484,328.269878 163.576831,328.202782" id="Fill-10" fill="#A7C7D1" mask="url(#mask-8)"></path>
                    </g>
                </g>
                <g id="Group-238" transform="translate(14.000000, 0.000000)">
                    <polygon id="Fill-14" fill="#064975" points="0.939685922 158.785293 400.701521 417.168979 398.35987 435.922008 1.46458398 172.481784"></polygon>
                    <path d="M101.517652,363.726732 C97.5223757,377.219171 91.5301184,403.703792 118.994521,410.700797 C146.458924,417.696486 153.449672,414.651505 175.929517,407.268776 C203.079507,398.354999 222.361288,388.214277 233.348628,377.219171 C245.871196,364.686435 240.837963,340.739956 212.37507,347.736962 C212.37507,347.736962 198.893478,326.748578 179.9169,336.242916 C160.941638,345.737253 141.96506,349.735354 141.96506,349.735354" id="Fill-16" fill="#064975"></path>
                    <path d="M136.077388,231.675398 C138.836063,203.895377 131.619043,213.158017 123.816611,214.602178 C116.012864,216.048972 113.123951,216.916521 108.209116,227.907678 C103.296912,238.896203 95.2050626,256.827757 99.827849,288.353118 C104.453267,319.877163 105.043941,332.562609 103.310067,342.106972 C101.574878,351.650019 93.6277374,362.801785 105.18865,365.983678 C116.749563,369.164255 120.135747,364.538201 142.38932,365.983678 C164.642893,367.429155 167.155563,364.028729 167.44498,350.725861 C167.579165,344.530582 164.317956,320.356356 166.341247,309.273046 C168.661849,296.557321 175.014563,295.91752 175.37765,287.917369 C175.93149,275.711116 175.226364,268.906314 159.638601,256.237982 C145.453199,244.709707 133.900179,253.619535 136.077388,231.675398" id="Fill-18" fill="#FCE7EC"></path>
                    <path d="M236.89044,352.814563 C242.745882,361.605909 243.624659,381.53059 243.624659,381.53059 C243.624659,381.53059 228.105304,384.75461 225.468974,384.462355" id="Fill-20" fill="#064975"></path>
                    <path d="M159.638865,199.427167 C159.638865,199.427167 168.577918,208.651629 168.814714,210.632907 C169.05151,212.614186 162.654068,216.589907 162.654068,216.589907" id="Fill-22" fill="#F3C481"></path>
                    <path d="M163.080565,204.007803 C164.598691,208.329754 164.964409,212.481881 165.9037,216.53659 C168.040128,225.763685 163.293681,242.078622 146.123332,239.071819 C140.811205,238.142395 143.547516,245.111755 138.172244,247.002197 C116.180463,254.737739 110.91438,242.177357 104.737948,224.599931 C98.5641471,207.022505 106.838856,188.10097 123.2212,182.337491 C135.508288,178.01554 147.870361,175.064028 156.387128,184.901962 C159.224734,188.18259 161.536128,199.613446 163.080565,204.007803" id="Fill-24" fill="#F3C481"></path>
                    <path d="M363.510586,285.102769 L363.510586,311.940202 C363.510586,317.136285 359.300877,321.34897 354.108465,321.34897 L348.255654,321.34897 C343.063241,321.34897 338.853533,317.136285 338.853533,311.940202 L338.853533,285.102769 C338.853533,285.102769 339.194256,288.076661 350.555207,288.076661 C361.917474,288.076661 363.510586,285.102769 363.510586,285.102769" id="Fill-26" fill="#D6D8E1"></path>
                    <path d="M341.876235,291.733929 L338.408487,291.545675 C333.389725,291.274483 329.920662,296.495579 332.113657,301.022899 L333.567322,304.021803 L333.408143,308.28583 L343.036536,308.28583" id="Stroke-28" stroke="#D6D8E1" stroke-width="1.087"></path>
                    <path d="M362.349233,285.102769 C358.017179,283.326859 348.733456,281.691811 340.014097,285.102769" id="Stroke-30" stroke="#D6D8E1" stroke-linecap="round" stroke-linejoin="round"></path>
                    <g id="Group-35" transform="translate(198.645631, 169.823843)">
                        <polyline id="Fill-32" fill="#FEFEFE" points="0.928109223 87.1254239 0.928109223 91.5553249 85.5892985 145.135406 130.791046 115.945452 131.90925 110.861268 146.945803 45.7200014 64.8038617 0.596884732 57.4934393 67.7102143"></polyline>
                        <polyline id="Stroke-34" stroke="#86D3E6" stroke-linecap="round" stroke-linejoin="round" points="0.928109223 87.1254239 0.928109223 91.5553249 85.5892985 145.135406 130.791046 115.945452 131.90925 110.861268 146.945803 45.7200014 64.8038617 0.596884732 57.4934393 67.7102143"></polyline>
                    </g>
                    <polygon id="Fill-36" fill="#FEFEFE" points="325.493759 272.377829 337.708492 218.680583 267.395832 179.301198 261.004967 234.659822"></polygon>
                    <polygon id="Stroke-38" stroke="#86D3E6" stroke-linecap="round" stroke-linejoin="round" points="325.493759 272.377829 337.708492 218.680583 267.395832 179.301198 261.004967 234.659822"></polygon>
                    <polygon id="Fill-40" fill="#FEFEFE" points="330.555539 280.685374 284.356617 309.273704 199.574398 257.098291 256.139728 237.534321"></polygon>
                    <polygon id="Stroke-42" stroke="#86D3E6" stroke-linecap="round" stroke-linejoin="round" points="330.555539 280.685374 284.356617 309.273704 199.574398 257.098291 256.139728 237.534321"></polygon>
                    <polygon id="Fill-44" fill="#0AC2F0" points="311.531602 275.958216 260.812505 246.412817 236.496175 255.800521 290.706699 288.780574"></polygon>
                    <polyline id="Stroke-46" stroke="#F29198" stroke-linecap="round" stroke-linejoin="round" points="264.891844 273.07595 290.706567 288.781364 305.011684 280.614022"></polyline>
                    <polygon id="Fill-48" fill="#0AC2F0" points="269.428068 281.987752 247.759908 269.531371 234.198068 274.003399 257.665879 288.054018"></polygon>
                    <path d="M267.679592,296.331285 C267.679592,301.815673 273.085121,306.261372 279.754879,306.261372 C286.422005,306.261372 297.955291,303.483633 297.214646,295.480849 C296.709481,290.020157 290.004204,287.916447 283.334447,287.916447 C276.666005,287.916447 267.679592,290.846896 267.679592,296.331285" id="Fill-50" fill="#F3C481"></path>
                    <path d="M270.242647,291.750648 C271.041176,289.958941 272.033089,286.246513 274.94305,283.685991 C277.853011,281.126785 279.835521,284.134905 278.972531,285.638307 C278.108225,287.143025 277.054482,288.294931 278.939642,288.326526" id="Fill-52" fill="#F3C481"></path>
                    <line x1="270.886206" y1="194.481475" x2="335.056638" y2="230.339319" id="Stroke-54" stroke="#D6D8E1"></line>
                    <line x1="269.175091" y1="202.269676" x2="333.345523" y2="238.127519" id="Stroke-56" stroke="#D6D8E1"></line>
                    <line x1="267.272434" y1="210.554183" x2="331.442867" y2="246.412027" id="Stroke-58" stroke="#D6D8E1"></line>
                    <line x1="265.162976" y1="219.603556" x2="329.333408" y2="255.462716" id="Stroke-60" stroke="#D6D8E1"></line>
                    <line x1="262.996949" y1="228.483236" x2="327.167381" y2="264.342397" id="Stroke-62" stroke="#D6D8E1"></line>
                    <polygon id="Fill-64" fill="#00B37E" points="273.464653 188.511048 270.886206 208.756946 284.673002 216.589907 287.925002 196.182083"></polygon>
                    <polygon id="Fill-66" fill="#00B37E" points="283.039504 232.369701 280.970169 245.75024 294.820111 253.620061 297.414344 240.630512"></polygon>
                    <polygon id="Fill-68" fill="#00B37E" points="268.75241 224.686818 267.272434 237.557885 279.499007 244.710234 281.64859 231.578506"></polygon>
                    <polygon id="Fill-70" fill="#00B37E" points="288.390307 208.35187 286.789302 217.521042 301.198346 225.435622 302.850656 216.024222"></polygon>
                    <polygon id="Fill-72" fill="#00B37E" points="303.715488 224.050439 302.114483 233.218294 316.523527 241.134191 318.175838 231.721474"></polygon>
                    <polygon id="Fill-74" fill="#00B37E" points="300.958524 235.642825 297.806504 253.122833 312.216864 261.037414 315.418873 243.315177"></polygon>
                    <polygon id="Fill-76" fill="#00B37E" points="290.494635 197.433251 288.89363 206.602422 303.302674 214.517003 304.954984 205.105602"></polygon>
                    <polygon id="Fill-78" fill="#00B37E" points="270.060183 212.090496 269.174828 222.050862 298.55728 238.472433 300.156969 228.953082"></polygon>
                    <path d="M171.414472,9.35887351 L451.650836,9.35887351 C454.318739,9.35887351 456.481477,10.8820222 456.481477,12.7632492 L456.481477,74.0564919 C456.481477,75.9364023 454.318739,77.4608675 451.650836,77.4608675 L171.414472,77.4608675 C168.746569,77.4608675 166.582516,75.9364023 166.582516,74.0564919 L166.582516,12.7632492 C166.582516,10.8820222 168.746569,9.35887351 171.414472,9.35887351" id="Fill-80" fill="#FEFEFE"></path>
                    <path d="M214.634368,37.6345434 L214.525179,37.758291 L201.369839,50.92293 C200.896247,51.396857 200.149023,51.433718 199.633334,51.0321965 L199.509674,50.92293 L194.247538,45.6570744 C193.733164,45.142337 193.733164,44.3090153 194.247538,43.7955944 C194.72113,43.320351 195.468353,43.2848064 195.984043,43.6863279 L196.107703,43.7955944 L200.439756,48.1293936 L212.665014,35.896811 C213.179387,35.3820736 214.010805,35.3820736 214.525179,35.896811 C214.998771,36.370738 215.036921,37.1171731 214.634368,37.6345434 M204.386358,22.3464481 C192.760984,22.3464481 183.337815,31.776279 183.337815,43.4098705 C183.337815,55.043462 192.760984,64.4732929 204.386358,64.4732929 C216.011732,64.4732929 225.434902,55.043462 225.434902,43.4098705 C225.434902,31.776279 216.011732,22.3464481 204.386358,22.3464481" id="Fill-82" fill="#00B37E"></path>
                    <path d="M256.235499,35.6225955 C270.640596,35.5686166 285.045693,35.3619317 299.448159,34.9972712 C313.847994,34.6326107 328.245198,34.1126075 342.635824,33.4359451 C350.702679,33.0568035 358.765586,32.6289527 366.828494,32.1510763 C367.670436,32.1023671 367.675698,30.7845868 366.828494,30.8346124 C352.448392,31.6850481 338.057766,32.3814575 323.663193,32.9212077 C309.26862,33.4596414 294.866154,33.8427324 280.462373,34.0704807 C272.38631,34.1981777 264.311562,34.275849 256.235499,34.3061277 C255.388295,34.3087606 255.38698,35.6252245 256.235499,35.6225955" id="Fill-84" fill="#231F20"></path>
                    <path d="M256.235499,53.2122696 C270.640596,53.1596021 285.045693,52.9529173 299.448159,52.5869403 C313.847994,52.2235963 328.245198,51.7035931 342.635824,51.0269306 C350.702679,50.647789 358.765586,50.2186218 366.828494,49.7420619 C367.670436,49.6920362 367.675698,48.3755723 366.828494,48.425598 C352.448392,49.2760336 338.057766,49.972443 323.663193,50.5108768 C309.26862,51.050627 294.866154,51.433718 280.462373,51.6614662 C272.38631,51.7891632 264.311562,51.8668346 256.235499,51.8957968 C255.388295,51.8997462 255.38698,53.2162101 256.235499,53.2122696" id="Fill-86" fill="#231F20"></path>
                    <path d="M171.414472,89.6040622 L451.650836,89.6040622 C454.318739,89.6040622 456.481477,91.1272109 456.481477,93.0084378 L456.481477,154.301681 C456.481477,156.181591 454.318739,157.706056 451.650836,157.706056 L171.414472,157.706056 C168.746569,157.706056 166.582516,156.181591 166.582516,154.301681 L166.582516,93.0084378 C166.582516,91.1272109 168.746569,89.6040622 171.414472,89.6040622" id="Fill-88" fill="#FEFEFE"></path>
                    <path d="M214.634368,117.879732 L214.525179,118.00348 L201.369839,131.168119 C200.896247,131.642046 200.149023,131.678907 199.633334,131.277385 L199.509674,131.168119 L194.247538,125.902263 C193.733164,125.387526 193.733164,124.554204 194.247538,124.040783 C194.72113,123.56554 195.468353,123.529995 195.984043,123.931517 L196.107703,124.040783 L200.439756,128.374582 L212.665014,116.142 C213.179387,115.627262 214.010805,115.627262 214.525179,116.142 C214.998771,116.615927 215.036921,117.362362 214.634368,117.879732 M204.386358,102.591637 C192.760984,102.591637 183.337815,112.021468 183.337815,123.655059 C183.337815,135.288651 192.760984,144.718482 204.386358,144.718482 C216.011732,144.718482 225.434902,135.288651 225.434902,123.655059 C225.434902,112.021468 216.011732,102.591637 204.386358,102.591637" id="Fill-90" fill="#00B37E"></path>
                    <path d="M256.235499,115.867784 C270.640596,115.813805 285.045693,115.60712 299.448159,115.24246 C313.847994,114.877799 328.245198,114.357796 342.635824,113.681134 C350.702679,113.301992 358.765586,112.874141 366.828494,112.396265 C367.670436,112.346239 367.675698,111.029775 366.828494,111.079801 C352.448392,111.930237 338.057766,112.626646 323.663193,113.166396 C309.26862,113.70483 294.866154,114.087921 280.462373,114.315669 C272.38631,114.443366 264.311562,114.521038 256.235499,114.551316 C255.388295,114.553949 255.38698,115.870413 256.235499,115.867784" id="Fill-92" fill="#231F20"></path>
                    <path d="M256.235499,133.457458 C270.640596,133.404791 285.045693,133.198106 299.448159,132.832129 C313.847994,132.468785 328.245198,131.948782 342.635824,131.272119 C350.702679,130.892978 358.765586,130.46381 366.828494,129.987251 C367.670436,129.937225 367.675698,128.620761 366.828494,128.670787 C352.448392,129.521222 338.057766,130.217632 323.663193,130.756065 C309.26862,131.295816 294.866154,131.678907 280.462373,131.906655 C272.38631,132.034352 264.311562,132.112023 256.235499,132.140985 C255.388295,132.144935 255.38698,133.461399 256.235499,133.457458" id="Fill-94" fill="#231F20"></path>
                    <line x1="203.860802" y1="16.3410031" x2="203.860802" y2="0.402574661" id="Stroke-96" stroke="#064975" stroke-linecap="round"></line>
                    <line x1="186.171738" y1="21.574737" x2="174.112238" y2="11.1615075" id="Stroke-98" stroke="#064975" stroke-linecap="round"></line>
                    <line x1="221.385425" y1="21.574737" x2="233.444925" y2="11.1615075" id="Stroke-100" stroke="#064975" stroke-linecap="round"></line>
                    <line x1="193.10526" y1="17.1085015" x2="189.573051" y2="7.14945215" id="Stroke-102" stroke="#064975" stroke-linecap="round"></line>
                    <line x1="181.313076" y1="28.9142865" x2="171.365008" y2="25.3664163" id="Stroke-104" stroke="#064975" stroke-linecap="round"></line>
                    <line x1="227.459509" y1="28.9142865" x2="237.407577" y2="25.3664163" id="Stroke-106" stroke="#064975" stroke-linecap="round"></line>
                    <line x1="214.617661" y1="17.1085015" x2="218.149869" y2="7.14945215" id="Stroke-108" stroke="#064975" stroke-linecap="round"></line>
                    <line x1="203.860802" y1="93.2307886" x2="203.860802" y2="77.2910437" id="Stroke-110" stroke="#064975" stroke-linecap="round"></line>
                    <line x1="186.171738" y1="98.4643908" x2="174.112238" y2="88.0511613" id="Stroke-112" stroke="#064975" stroke-linecap="round"></line>
                    <line x1="221.385425" y1="98.4643908" x2="233.444925" y2="88.0511613" id="Stroke-114" stroke="#064975" stroke-linecap="round"></line>
                    <line x1="193.10526" y1="93.998287" x2="189.573051" y2="84.0392376" id="Stroke-116" stroke="#064975" stroke-linecap="round"></line>
                    <line x1="181.313076" y1="105.80394" x2="171.365008" y2="102.25607" id="Stroke-118" stroke="#064975" stroke-linecap="round"></line>
                    <line x1="227.459509" y1="105.80394" x2="237.407577" y2="102.25607" id="Stroke-120" stroke="#064975" stroke-linecap="round"></line>
                    <line x1="214.617661" y1="93.998287" x2="218.149869" y2="84.0392376" id="Stroke-122" stroke="#064975" stroke-linecap="round"></line>
                    <polyline id="Stroke-124" stroke="#00B37E" points="380.074343 138.365885 397.440707 161.629119 418.635275 145.619601"></polyline>
                    <polyline id="Stroke-126" stroke="#00B37E" points="418.642247 145.664361 380.074737 138.365885 407.149742 118.661053 449.538878 119.07179 418.635669 145.619601 435.454771 170.523149 421.644296 184.618528 397.441101 161.629119 367.072 163.602498 379.39066 187.901789 397.441101 161.629119 405.651349 203.478189"></polyline>
                    <line x1="380.074343" y1="138.365885" x2="367.071605" y2="163.602498" id="Stroke-128" stroke="#00B37E"></line>
                    <polygon id="Stroke-130" stroke="#00B37E" points="538.397016 178.244209 492.483564 203.982395 449.576108 119.048094 490.46685 123.629388 502.777617 146.434492 532.583671 146.937381"></polygon>
                    <polyline id="Stroke-132" stroke="#00B37E" points="449.576634 119.048357 435.455692 170.523412 466.449673 152.719554 490.467377 123.628335 532.584197 146.937645"></polyline>
                    <polyline id="Stroke-134" stroke="#00B37E" points="538.397016 178.244209 515.323865 224.317813 502.777617 146.434492 475.686826 170.703504 454.189685 201.965572 435.455166 170.523149 475.972297 170.613985"></polyline>
                    <polyline id="Stroke-136" stroke="#00B37E" points="421.64469 184.618264 405.651744 203.477926 454.189685 201.965309 492.483564 203.982132 515.323865 224.31755"></polyline>
                    <line x1="379.390791" y1="187.901657" x2="405.651481" y2="203.478058" id="Stroke-138" stroke="#00B37E"></line>
                    <path d="M495.624138,203.664601 C495.624138,205.427346 494.195468,206.857026 492.433968,206.857026 C490.672468,206.857026 489.245114,205.427346 489.245114,203.664601 C489.245114,201.903172 490.672468,200.473492 492.433968,200.473492 C494.195468,200.473492 495.624138,201.903172 495.624138,203.664601" id="Fill-140" fill="#FEFEFE"></path>
                    <path d="M495.624138,203.664601 C495.624138,205.427346 494.195468,206.857026 492.433968,206.857026 C490.672468,206.857026 489.245114,205.427346 489.245114,203.664601 C489.245114,201.903172 490.672468,200.473492 492.433968,200.473492 C494.195468,200.473492 495.624138,201.903172 495.624138,203.664601 Z" id="Stroke-142" stroke="#00B37E"></path>
                    <path d="M518.498249,224.142987 C518.498249,225.905732 517.070894,227.334095 515.309394,227.334095 C513.547894,227.334095 512.12054,225.905732 512.12054,224.142987 C512.12054,222.380241 513.547894,220.950562 515.309394,220.950562 C517.070894,220.950562 518.498249,222.380241 518.498249,224.142987" id="Fill-144" fill="#FEFEFE"></path>
                    <path d="M518.498249,224.142987 C518.498249,225.905732 517.070894,227.334095 515.309394,227.334095 C513.547894,227.334095 512.12054,225.905732 512.12054,224.142987 C512.12054,222.380241 513.547894,220.950562 515.309394,220.950562 C517.070894,220.950562 518.498249,222.380241 518.498249,224.142987 Z" id="Stroke-146" stroke="#00B37E"></path>
                    <path d="M513.714046,193.982667 C513.714046,195.745412 512.285376,197.175092 510.523876,197.175092 C508.762376,197.175092 507.335022,195.745412 507.335022,193.982667 C507.335022,192.219922 508.762376,190.791559 510.523876,190.791559 C512.285376,190.791559 513.714046,192.219922 513.714046,193.982667" id="Fill-148" fill="#FEFEFE"></path>
                    <path d="M513.714046,193.982667 C513.714046,195.745412 512.285376,197.175092 510.523876,197.175092 C508.762376,197.175092 507.335022,195.745412 507.335022,193.982667 C507.335022,192.219922 508.762376,190.791559 510.523876,190.791559 C512.285376,190.791559 513.714046,192.219922 513.714046,193.982667 Z" id="Stroke-150" stroke="#00B37E"></path>
                    <path d="M541.440503,178.510398 C541.440503,180.273144 540.013149,181.701507 538.251649,181.701507 C536.490149,181.701507 535.062795,180.273144 535.062795,178.510398 C535.062795,176.747653 536.490149,175.31929 538.251649,175.31929 C540.013149,175.31929 541.440503,176.747653 541.440503,178.510398" id="Fill-152" fill="#FEFEFE"></path>
                    <path d="M541.440503,178.510398 C541.440503,180.273144 540.013149,181.701507 538.251649,181.701507 C536.490149,181.701507 535.062795,180.273144 535.062795,178.510398 C535.062795,176.747653 536.490149,175.31929 538.251649,175.31929 C540.013149,175.31929 541.440503,176.747653 541.440503,178.510398 Z" id="Stroke-154" stroke="#00B37E"></path>
                    <path d="M535.55783,146.979508 C535.55783,148.742253 534.130476,150.171933 532.368976,150.171933 C530.607476,150.171933 529.178806,148.742253 529.178806,146.979508 C529.178806,145.216763 530.607476,143.7884 532.368976,143.7884 C534.130476,143.7884 535.55783,145.216763 535.55783,146.979508" id="Fill-156" fill="#FEFEFE"></path>
                    <path d="M535.55783,146.979508 C535.55783,148.742253 534.130476,150.171933 532.368976,150.171933 C530.607476,150.171933 529.178806,148.742253 529.178806,146.979508 C529.178806,145.216763 530.607476,143.7884 532.368976,143.7884 C534.130476,143.7884 535.55783,145.216763 535.55783,146.979508 Z" id="Stroke-158" stroke="#00B37E"></path>
                    <path d="M505.823473,146.647759 C505.823473,148.410505 504.394803,149.838868 502.633303,149.838868 C500.871803,149.838868 499.444449,148.410505 499.444449,146.647759 C499.444449,144.885014 500.871803,143.456651 502.633303,143.456651 C504.394803,143.456651 505.823473,144.885014 505.823473,146.647759" id="Fill-160" fill="#FEFEFE"></path>
                    <path d="M505.823473,146.647759 C505.823473,148.410505 504.394803,149.838868 502.633303,149.838868 C500.871803,149.838868 499.444449,148.410505 499.444449,146.647759 C499.444449,144.885014 500.871803,143.456651 502.633303,143.456651 C504.394803,143.456651 505.823473,144.885014 505.823473,146.647759 Z" id="Stroke-162" stroke="#00B37E"></path>
                    <path d="M493.50705,123.74471 C493.50705,125.507456 492.079695,126.937135 490.318195,126.937135 C488.556695,126.937135 487.129341,125.507456 487.129341,123.74471 C487.129341,121.983282 488.556695,120.553602 490.318195,120.553602 C492.079695,120.553602 493.50705,121.983282 493.50705,123.74471" id="Fill-164" fill="#FEFEFE"></path>
                    <path d="M493.50705,123.74471 C493.50705,125.507456 492.079695,126.937135 490.318195,126.937135 C488.556695,126.937135 487.129341,125.507456 487.129341,123.74471 C487.129341,121.983282 488.556695,120.553602 490.318195,120.553602 C492.079695,120.553602 493.50705,121.983282 493.50705,123.74471 Z" id="Stroke-166" stroke="#00B37E"></path>
                    <path d="M469.637212,152.64649 C469.637212,154.409236 468.208542,155.837599 466.447042,155.837599 C464.686857,155.837599 463.258187,154.409236 463.258187,152.64649 C463.258187,150.883745 464.686857,149.454065 466.447042,149.454065 C468.208542,149.454065 469.637212,150.883745 469.637212,152.64649" id="Fill-168" fill="#FEFEFE"></path>
                    <path d="M469.637212,152.64649 C469.637212,154.409236 468.208542,155.837599 466.447042,155.837599 C464.686857,155.837599 463.258187,154.409236 463.258187,152.64649 C463.258187,150.883745 464.686857,149.454065 466.447042,149.454065 C468.208542,149.454065 469.637212,150.883745 469.637212,152.64649 Z" id="Stroke-170" stroke="#00B37E"></path>
                    <path d="M478.810035,170.598714 C478.810035,172.361459 477.382681,173.791139 475.621181,173.791139 C473.859681,173.791139 472.432327,172.361459 472.432327,170.598714 C472.432327,168.835969 473.859681,167.407605 475.621181,167.407605 C477.382681,167.407605 478.810035,168.835969 478.810035,170.598714" id="Fill-172" fill="#FEFEFE"></path>
                    <path d="M478.810035,170.598714 C478.810035,172.361459 477.382681,173.791139 475.621181,173.791139 C473.859681,173.791139 472.432327,172.361459 472.432327,170.598714 C472.432327,168.835969 473.859681,167.407605 475.621181,167.407605 C477.382681,167.407605 478.810035,168.835969 478.810035,170.598714 Z" id="Stroke-174" stroke="#00B37E"></path>
                    <path d="M457.322103,201.781136 C457.322103,203.543881 455.893433,204.973561 454.131933,204.973561 C452.370433,204.973561 450.943079,203.543881 450.943079,201.781136 C450.943079,200.019707 452.370433,198.590027 454.131933,198.590027 C455.893433,198.590027 457.322103,200.019707 457.322103,201.781136" id="Fill-176" fill="#FEFEFE"></path>
                    <path d="M457.322103,201.781136 C457.322103,203.543881 455.893433,204.973561 454.131933,204.973561 C452.370433,204.973561 450.943079,203.543881 450.943079,201.781136 C450.943079,200.019707 452.370433,198.590027 454.131933,198.590027 C455.893433,198.590027 457.322103,200.019707 457.322103,201.781136 Z" id="Stroke-178" stroke="#00B37E"></path>
                    <path d="M438.824906,170.53447 C438.824906,172.297215 437.397552,173.725579 435.636052,173.725579 C433.874552,173.725579 432.447198,172.297215 432.447198,170.53447 C432.447198,168.771725 433.874552,167.342045 435.636052,167.342045 C437.397552,167.342045 438.824906,168.771725 438.824906,170.53447" id="Fill-180" fill="#FEFEFE"></path>
                    <path d="M438.824906,170.53447 C438.824906,172.297215 437.397552,173.725579 435.636052,173.725579 C433.874552,173.725579 432.447198,172.297215 432.447198,170.53447 C432.447198,168.771725 433.874552,167.342045 435.636052,167.342045 C437.397552,167.342045 438.824906,168.771725 438.824906,170.53447 Z" id="Stroke-182" stroke="#00B37E"></path>
                    <path d="M421.522609,145.810883 C421.522609,147.573628 420.095254,149.003308 418.333754,149.003308 C416.572254,149.003308 415.1449,147.573628 415.1449,145.810883 C415.1449,144.048138 416.572254,142.619775 418.333754,142.619775 C420.095254,142.619775 421.522609,144.048138 421.522609,145.810883" id="Fill-184" fill="#FEFEFE"></path>
                    <path d="M421.522609,145.810883 C421.522609,147.573628 420.095254,149.003308 418.333754,149.003308 C416.572254,149.003308 415.1449,147.573628 415.1449,145.810883 C415.1449,144.048138 416.572254,142.619775 418.333754,142.619775 C420.095254,142.619775 421.522609,144.048138 421.522609,145.810883 Z" id="Stroke-186" stroke="#00B37E"></path>
                    <path d="M400.386714,161.721534 C400.386714,163.484279 398.959359,164.912643 397.197859,164.912643 C395.436359,164.912643 394.009005,163.484279 394.009005,161.721534 C394.009005,159.958789 395.436359,158.530426 397.197859,158.530426 C398.959359,158.530426 400.386714,159.958789 400.386714,161.721534" id="Fill-188" fill="#FEFEFE"></path>
                    <path d="M400.386714,161.721534 C400.386714,163.484279 398.959359,164.912643 397.197859,164.912643 C395.436359,164.912643 394.009005,163.484279 394.009005,161.721534 C394.009005,159.958789 395.436359,158.530426 397.197859,158.530426 C398.959359,158.530426 400.386714,159.958789 400.386714,161.721534 Z" id="Stroke-190" stroke="#00B37E"></path>
                    <path d="M424.691993,184.757151 C424.691993,186.519896 423.264639,187.94826 421.503139,187.94826 C419.741639,187.94826 418.314284,186.519896 418.314284,184.757151 C418.314284,182.994406 419.741639,181.564726 421.503139,181.564726 C423.264639,181.564726 424.691993,182.994406 424.691993,184.757151" id="Fill-192" fill="#FEFEFE"></path>
                    <path d="M424.691993,184.757151 C424.691993,186.519896 423.264639,187.94826 421.503139,187.94826 C419.741639,187.94826 418.314284,186.519896 418.314284,184.757151 C418.314284,182.994406 419.741639,181.564726 421.503139,181.564726 C423.264639,181.564726 424.691993,182.994406 424.691993,184.757151 Z" id="Stroke-194" stroke="#00B37E"></path>
                    <path d="M382.743956,187.731965 C382.743956,189.49471 381.315286,190.923073 379.553786,190.923073 C377.793601,190.923073 376.364932,189.49471 376.364932,187.731965 C376.364932,185.96922 377.793601,184.540856 379.553786,184.540856 C381.315286,184.540856 382.743956,185.96922 382.743956,187.731965" id="Fill-196" fill="#FEFEFE"></path>
                    <path d="M382.743956,187.731965 C382.743956,189.49471 381.315286,190.923073 379.553786,190.923073 C377.793601,190.923073 376.364932,189.49471 376.364932,187.731965 C376.364932,185.96922 377.793601,184.540856 379.553786,184.540856 C381.315286,184.540856 382.743956,185.96922 382.743956,187.731965 Z" id="Stroke-198" stroke="#00B37E"></path>
                    <path d="M370.540536,163.462295 C370.540536,165.22504 369.111867,166.653403 367.350367,166.653403 C365.588867,166.653403 364.161512,165.22504 364.161512,163.462295 C364.161512,161.699549 365.588867,160.26987 367.350367,160.26987 C369.111867,160.26987 370.540536,161.699549 370.540536,163.462295" id="Fill-200" fill="#FEFEFE"></path>
                    <path d="M370.540536,163.462295 C370.540536,165.22504 369.111867,166.653403 367.350367,166.653403 C365.588867,166.653403 364.161512,165.22504 364.161512,163.462295 C364.161512,161.699549 365.588867,160.26987 367.350367,160.26987 C369.111867,160.26987 370.540536,161.699549 370.540536,163.462295 Z" id="Stroke-202" stroke="#00B37E"></path>
                    <path d="M383.440268,138.619173 C383.440268,140.381918 382.012914,141.810281 380.251414,141.810281 C378.489914,141.810281 377.061244,140.381918 377.061244,138.619173 C377.061244,136.856427 378.489914,135.428064 380.251414,135.428064 C382.012914,135.428064 383.440268,136.856427 383.440268,138.619173" id="Fill-204" fill="#FEFEFE"></path>
                    <path d="M383.440268,138.619173 C383.440268,140.381918 382.012914,141.810281 380.251414,141.810281 C378.489914,141.810281 377.061244,140.381918 377.061244,138.619173 C377.061244,136.856427 378.489914,135.428064 380.251414,135.428064 C382.012914,135.428064 383.440268,136.856427 383.440268,138.619173 Z" id="Stroke-206" stroke="#00B37E"></path>
                    <path d="M408.422521,202.699106 C408.422521,204.461851 406.995167,205.890215 405.233667,205.890215 C403.472167,205.890215 402.044813,204.461851 402.044813,202.699106 C402.044813,200.936361 403.472167,199.507998 405.233667,199.507998 C406.995167,199.507998 408.422521,200.936361 408.422521,202.699106" id="Fill-208" fill="#FEFEFE"></path>
                    <path d="M408.422521,202.699106 C408.422521,204.461851 406.995167,205.890215 405.233667,205.890215 C403.472167,205.890215 402.044813,204.461851 402.044813,202.699106 C402.044813,200.936361 403.472167,199.507998 405.233667,199.507998 C406.995167,199.507998 408.422521,200.936361 408.422521,202.699106 Z" id="Stroke-210" stroke="#00B37E"></path>
                    <path d="M452.801271,119.443033 C452.801271,121.205778 451.372601,122.634141 449.611101,122.634141 C447.850917,122.634141 446.422247,121.205778 446.422247,119.443033 C446.422247,117.680288 447.850917,116.250608 449.611101,116.250608 C451.372601,116.250608 452.801271,117.680288 452.801271,119.443033" id="Fill-212" fill="#FEFEFE"></path>
                    <path d="M452.801271,119.443033 C452.801271,121.205778 451.372601,122.634141 449.611101,122.634141 C447.850917,122.634141 446.422247,121.205778 446.422247,119.443033 C446.422247,117.680288 447.850917,116.250608 449.611101,116.250608 C451.372601,116.250608 452.801271,117.680288 452.801271,119.443033 Z" id="Stroke-214" stroke="#00B37E"></path>
                    <path d="M410.550003,118.864447 C410.550003,120.627192 409.122649,122.055556 407.361149,122.055556 C405.599649,122.055556 404.172294,120.627192 404.172294,118.864447 C404.172294,117.101702 405.599649,115.672022 407.361149,115.672022 C409.122649,115.672022 410.550003,117.101702 410.550003,118.864447" id="Fill-216" fill="#FEFEFE"></path>
                    <path d="M410.550003,118.864447 C410.550003,120.627192 409.122649,122.055556 407.361149,122.055556 C405.599649,122.055556 404.172294,120.627192 404.172294,118.864447 C404.172294,117.101702 405.599649,115.672022 407.361149,115.672022 C409.122649,115.672022 410.550003,117.101702 410.550003,118.864447 Z" id="Stroke-218" stroke="#00B37E"></path>
                    <path d="M453.073586,212.825873 C439.580154,275.585657 340.081057,258.594057 314.075582,234.363222" id="Stroke-220" stroke="#00B37E" stroke-dasharray="6"></path>
                    <polyline id="Stroke-222" stroke="#00B37E" points="448.794286 215.443267 453.213165 211.883548 455.832393 216.747882"></polyline>
                    <line x1="140.703595" y1="209.70954" x2="158.834284" y2="205.409969" id="Stroke-224" stroke="#064975"></line>
                    <path d="M162.379122,204.939859 C162.379122,209.505356 161.639792,213.20462 160.728127,213.20462 C159.816462,213.20462 159.075816,209.505356 159.075816,204.939859 C159.075816,200.373046 159.816462,196.673783 160.728127,196.673783 C161.639792,196.673783 162.379122,200.373046 162.379122,204.939859 Z" id="Stroke-226" stroke="#064975"></path>
                    <path d="M162.379122,203.168294 C163.188175,201.816285 163.293418,202.866824 163.293418,202.866824" id="Stroke-228" stroke="#064975"></path>
                    <path d="M161.614665,190.231271 C153.346534,170.400059 148.935549,170.151248 124.84549,171.688877 C100.752801,173.226507 91.3730437,202.944363 92.4649369,222.559675 C92.9122184,230.596688 86.4174272,258.495191 94.248801,268.807052 C99.5661893,275.808007 107.334417,257.967289 110.504854,262.56833 C120.020112,276.371454 130.216816,291.89388 138.91118,288.780443 C126.197859,245.834757 146.247913,250.396305 145.100767,248.541407 C134.697524,231.722264 138.185005,221.94357 138.33366,215.810165 C138.44285,211.257833 144.721893,212.026648 144.260141,210.554841 C143.228762,207.27553 143.230078,204.854552 142.905141,202.270334 C145.966388,199.433354 157.299714,192.112498 161.614665,190.231271" id="Fill-230" fill="#400626"></path>
                    <path d="M150.291338,293.073563 C150.291338,293.073563 149.996658,294.642788 150.322911,297.141436 C150.4321,297.974758 144.354333,294.174127 144.635857,295.18912 C144.850289,295.964518 151.379284,301.521312 151.729217,302.377013 C152.190969,303.513122 152.78559,304.711104 153.5486,305.945947 C158.296362,313.649894 167.349867,345.147609 166.413207,335.063496 C165.475231,324.976749 167.365653,305.077081 167.365653,305.077081" id="Fill-232" fill="#EED0D8"></path>
                    <path d="M150.291338,293.073563 C156.179668,303.226133 168.603571,324.035477 176.900644,326.449872 C212.067498,336.68143 241.455212,313.58802 272.078212,303.926491 C276.735202,302.457318 276.007712,296.105379 275.816959,291.454312 C250.854702,296.583256 220.452712,309.230524 194.699818,303.226133 C182.703464,300.428647 178.116197,285.452553 171.610882,275.744949 C165.712027,282.74722 153.428886,287.220564 150.291338,293.073563" id="Fill-234" fill="#F3C481"></path>
                    <path d="M161.614665,257.883825 C164.194427,262.249219 172.085,270.507397 173.340019,274.279066 C173.493937,274.739828 171.611408,275.74429 171.611408,275.74429 L181.559476,292.775384 C181.559476,292.775384 184.708864,285.895544 180.234733,278.107343 C177.533942,273.403618 161.614665,257.883825 161.614665,257.883825" id="Fill-236" fill="#EED0D8"></path>
                </g>
            </g>
        </g>
    </g>
</svg>