<svg xmlns="http://www.w3.org/2000/svg" width="24" height="24" viewBox="0 0 24 24">
  <g fill="none" fill-rule="evenodd" transform="translate(1 1)">
    <path fill="#BCD8E0" d="M21.8288689,10.9144885 C21.8288689,16.9424885 16.9423443,21.8290131 10.9143443,21.8290131 C4.88634426,21.8290131 0.000180327869,16.9424885 0.000180327869,10.9144885 C0.000180327869,4.88648852 4.88634426,-3.60655738e-05 10.9143443,-3.60655738e-05 C16.9423443,-3.60655738e-05 21.8288689,4.88648852 21.8288689,10.9144885 Z"/>
    <path fill="#4B7682" fill-rule="nonzero" d="M10.9143443,-1.00003607 C4.33411809,-1.00003607 -0.999819672,4.3341452 -0.999819672,10.9144885 C-0.999819672,17.4948319 4.33411809,22.8290131 10.9143443,22.8290131 C17.494629,22.8290131 22.8288689,17.4947733 22.8288689,10.9144885 C22.8288689,4.33420377 17.494629,-1.00003607 10.9143443,-1.00003607 Z M10.9143443,0.999963934 C16.3900595,0.999963934 20.8288689,5.43877327 20.8288689,10.9144885 C20.8288689,16.3902038 16.3900595,20.8290131 10.9143443,20.8290131 C5.43870803,20.8290131 1.00018033,16.3902828 1.00018033,10.9144885 C1.00018033,5.43869426 5.43870803,0.999963934 10.9143443,0.999963934 Z"/>
    <path fill="#4B7682" fill-rule="nonzero" d="M10.9144885-.499963934C12.5008948-.499963934 13.9657758.492800601 15.1028517 2.23107971 15.2540178 2.4621715 15.1892252 2.77205276 14.9581334 2.92321887 14.7270416 3.07438499 14.4171604 3.00959242 14.2659942 2.77850062 13.2977587 1.29833223 12.1198268.500036066 10.9144885.500036066 8.58453192.500036066 6.43395197 3.51520365 5.73370047 7.90928178 5.6902421 8.18198305 5.43394408 8.36782114 5.16124281 8.32436277 4.88854154 8.2809044 4.70270345 8.02460637 4.74616182 7.7519051 5.51424978 2.93215318 7.96222059-.499963934 10.9144885-.499963934zM16.5998813 7.85622203C16.8737082 7.82053682 17.1246174 8.01358881 17.1603026 8.28741572 17.2715512 9.14107147 17.3282328 10.0208877 17.3282328 10.9144885 17.3282328 17.1819755 14.5394905 22.3290131 10.9145607 22.3290131 7.96154431 22.3290131 5.51317842 18.8954309 4.74585816 14.0745244 4.70245229 13.8018148 4.88833972 13.5455525 5.16104935 13.5021467 5.43375898 13.4587408 5.69002122 13.6446282 5.73342709 13.9173379 6.43298367 18.3124999 8.58395244 21.3290131 10.9145607 21.3290131 13.8218089 21.3290131 16.3282328 16.703036 16.3282328 10.9144885 16.3282328 10.063947 16.2743322 9.22729629 16.1686876 8.4166433 16.1330024 8.14281639 16.3260544 7.89190724 16.5998813 7.85622203z"/>
    <path fill="#4B7682" fill-rule="nonzero" d="M13.8156184 15.2880234C16.0338936 15.7123019 17.9804451 16.6169874 19.3520938 17.8566653 19.5569626 18.0418231 19.5729416 18.358002 19.3877839 18.5628708 19.2026261 18.7677396 18.8864472 18.7837186 18.6815783 18.5985609 17.4532846 17.4884452 15.6743452 16.6616597 13.6277586 16.2702192 13.3565328 16.2183432 13.1787146 15.9564173 13.2305906 15.6851914 13.2767026 15.4441017 13.48878 15.2768157 13.7258296 15.2790516L13.8156184 15.2880234zM8.01640467 15.2874946C8.28764374 15.2356875 8.54952444 15.4135722 8.6013316 15.6848112 8.65313876 15.9560503 8.47525406 16.217931 8.204015 16.2697382 6.15664322 16.6607899 4.37656011 17.4878276 3.14738854 18.5984584 2.94249666 18.7835906 2.62631967 18.7675722 2.44118748 18.5626803 2.25605529 18.3577885 2.27207368 18.0416115 2.47696556 17.8564793 3.84952275 16.6162909 5.79727732 15.711352 8.01640467 15.2874946zM18.3473696 2.85872741C18.7575761 2.48893151 19.3898931 2.52169085 19.759689 2.93189743 20.1294849 3.34210401 20.0967255 3.97442095 19.686519 4.34421685 19.4683338 4.54090796 19.2362595 4.73015174 18.9918034 4.9108718 18.5476996 5.23918613 17.921531 5.14532025 17.5932167 4.7012165 17.2649024 4.25711274 17.3587683 3.63094416 17.802872 3.30262984 17.9958405 3.15997328 18.1777635 3.01162507 18.3473696 2.85872741zM2.44118598 3.26633443C2.62631726 3.06144173 2.94249417 3.04542192 3.14738688 3.2305532 4.91979578 4.83201732 7.78590321 5.81151148 10.9143082 5.81151148 11.672621 5.81151148 12.4190869 5.75438711 13.1436441 5.64245502 13.4165492 5.6002957 13.6719594 5.78735213 13.7141188 6.06025724 13.7562781 6.33316236 13.5692216 6.58857255 13.2963165 6.63073187 12.5211573 6.75048113 11.7236505 6.81151148 10.9143082 6.81151148 7.55026472 6.81151148 4.44416216 5.74999882 2.47696722 3.97253533 2.27207451 3.78740405 2.25605471 3.47122714 2.44118598 3.26633443zM21.8288328 10.4144885C22.1049752 10.4144885 22.3288328 10.6383461 22.3288328 10.9144885 22.3288328 11.1599484 22.1519576 11.3640969 21.9187084 11.4064329L21.8288328 11.4144885 7.77876721 11.4144885C7.50262484 11.4144885 7.27876721 11.1906309 7.27876721 10.9144885 7.27876721 10.6690286 7.45564237 10.4648802 7.68889158 10.4225442L7.77876721 10.4144885 21.8288328 10.4144885zM2.32518361 10.4144885C2.60132598 10.4144885 2.82518361 10.6383461 2.82518361 10.9144885 2.82518361 11.1599484 2.64830845 11.3640969 2.41505924 11.4064329L2.32518361 11.4144885.0000360655738 11.4144885C-.276106309 11.4144885-.499963934 11.1906309-.499963934 10.9144885-.499963934 10.6690286-.323088774 10.4648802-.0898395668 10.4225442L.0000360655738 10.4144885 2.32518361 10.4144885z"/>
    <path fill="#4B7682" fill-rule="nonzero" d="M10.9144525-.500036066C11.1599123-.500036066 11.3640608-.323160905 11.4063968-.0899116979L11.4144525-.0000360655738 11.4144525 12.5453738C11.4144525 12.8215161 11.1905948 13.0453738 10.9144525 13.0453738 10.6689926 13.0453738 10.4648441 12.8684986 10.4225081 12.6352494L10.4144525 12.5453738 10.4144525-.0000360655738C10.4144525-.27617844 10.6383101-.500036066 10.9144525-.500036066zM10.9144525 17.9621836C11.1599123 17.9621836 11.3640608 18.1390588 11.4063968 18.372308L11.4144525 18.4621836 11.4144525 21.8289049C11.4144525 22.1050473 11.1905948 22.3289049 10.9144525 22.3289049 10.6689926 22.3289049 10.4648441 22.1520298 10.4225081 21.9187806L10.4144525 21.8289049 10.4144525 18.4621836C10.4144525 18.1860412 10.6383101 17.9621836 10.9144525 17.9621836zM16.016577 3.00705246C14.6974183 3.00705246 13.627823 4.07664779 13.627823 5.39580656 13.627823 6.71496533 14.6974183 7.78456066 16.016577 7.78456066 17.3356966 7.78456066 18.4049705 6.7150046 18.4049705 5.39580656 18.4049705 4.07660851 17.3356966 3.00705246 16.016577 3.00705246zM16.016577 4.00705246C16.7833528 4.00705246 17.4049705 4.62883421 17.4049705 5.39580656 17.4049705 6.1627789 16.7833528 6.78456066 16.016577 6.78456066 15.249703 6.78456066 14.627823 6.16268058 14.627823 5.39580656 14.627823 4.62893254 15.249703 4.00705246 16.016577 4.00705246zM5.00052787 8.52573443C3.6813691 8.52573443 2.61177377 9.59532976 2.61177377 10.9144885 2.61177377 12.2336473 3.6813691 13.3032426 5.00052787 13.3032426 6.31968664 13.3032426 7.38928197 12.2336473 7.38928197 10.9144885 7.38928197 9.59532976 6.31968664 8.52573443 5.00052787 8.52573443zM5.00052787 9.52573443C5.76740189 9.52573443 6.38928197 10.1476145 6.38928197 10.9144885 6.38928197 11.6813625 5.76740189 12.3032426 5.00052787 12.3032426 4.23365385 12.3032426 3.61177377 11.6813625 3.61177377 10.9144885 3.61177377 10.1476145 4.23365385 9.52573443 5.00052787 9.52573443zM10.9143803 13.1290361C9.59518228 13.1290361 8.52562623 14.19831 8.52562623 15.5174295 8.52562623 16.8365883 9.59522156 17.9061836 10.9143803 17.9061836 12.2335391 17.9061836 13.3031344 16.8365883 13.3031344 15.5174295 13.3031344 14.19831 12.2335784 13.1290361 10.9143803 13.1290361zM10.9143803 14.1290361C11.6813527 14.1290361 12.3031344 14.7506538 12.3031344 15.5174295 12.3031344 16.2843035 11.6812543 16.9061836 10.9143803 16.9061836 10.1475063 16.9061836 9.52562623 16.2843035 9.52562623 15.5174295 9.52562623 14.7506538 10.147408 14.1290361 10.9143803 14.1290361z"/>
  </g>
</svg>
