<svg xmlns="http://www.w3.org/2000/svg" width="28" height="26" viewBox="0 0 28 26">
  <g fill="none" fill-rule="evenodd">
    <circle cx="13" cy="13" r="12" fill="#B9E6D0" fill-rule="nonzero"/>
    <path fill="#00A35D" fill-rule="nonzero" d="M13,4 C13.5128358,4 13.9355072,4.38604019 13.9932723,4.88337887 L14,5 L14,11.584 L17.2928932,8.29289322 C17.6533772,7.93240926 18.2206082,7.90467972 18.6128994,8.20970461 L18.7071068,8.29289322 C19.0675907,8.65337718 19.0953203,9.22060824 18.7902954,9.61289944 L18.7071068,9.70710678 L13.7071068,14.7071068 C13.1045317,15.3096819 12.0928192,14.9276677 12.0059833,14.1136309 L12,14 L12,5 C12,4.44771525 12.4477153,4 13,4 Z"/>
    <path fill="#00A35D" fill-rule="nonzero" d="M13,0.25 C5.95836944,0.25 0.25,5.95836944 0.25,13 C0.25,20.0416306 5.95836944,25.75 13,25.75 C20.0416306,25.75 25.75,20.0416306 25.75,13 C25.75,5.95836944 20.0416306,0.25 13,0.25 Z M13,1.75 C19.2132034,1.75 24.25,6.78679656 24.25,13 C24.25,19.2132034 19.2132034,24.25 13,24.25 C6.78679656,24.25 1.75,19.2132034 1.75,13 C1.75,6.78679656 6.78679656,1.75 13,1.75 Z"/>
    <circle cx="21.5" cy="19.5" r="6.5" fill="#00A35D"/>
    <path fill="#B8E7D0" fill-rule="nonzero" d="M20,22 L20,17 L19.1888112,17 L18,18.874063 L18.5314685,19.7661169 L19.0582751,18.9265367 L19.0582751,22 L20,22 Z M22.4201183,22 L22.4201183,19.7661169 C22.5384615,19.6386807 22.704142,19.4812594 23.0276134,19.4812594 C23.3668639,19.4812594 23.5798817,19.6086957 23.5798817,19.9835082 L23.5798817,22 L25,22 L25,19.4137931 C25,18.7841079 24.6134122,18.2893553 23.729783,18.2893553 C23.0591716,18.2893553 22.6410256,18.5517241 22.4201183,18.7916042 L22.4201183,17 L21,17 L21,22 L22.4201183,22 Z"/>
  </g>
</svg>
